<?xml version="1.0" encoding="UTF-8" standalone="no"?>
<svg xmlns="http://www.w3.org/2000/svg" viewBox="0 0 512 512">
  <path fill="#0066cc" d="M256,0C114.6,0,0,114.6,0,256s114.6,256,256,256s256-114.6,256-256S397.4,0,256,0z M256,464
  c-114.7,0-208-93.3-208-208S141.3,48,256,48s208,93.3,208,208S370.7,464,256,464z"/>
  <path fill="#0066cc" d="M368,224h-64v-48c0-8.8-7.2-16-16-16h-64c-8.8,0-16,7.2-16,16v48h-64c-8.8,0-16,7.2-16,16v128
  c0,8.8,7.2,16,16,16h224c8.8,0,16-7.2,16-16V240C384,231.2,376.8,224,368,224z M240,192h32v32h-32V192z M352,352H160v-96h192
  V352z"/>
  <rect x="176" y="272" fill="#0066cc" width="32" height="32"/>
  <rect x="240" y="272" fill="#0066cc" width="32" height="32"/>
  <rect x="304" y="272" fill="#0066cc" width="32" height="32"/>
</svg>
