<?xml version="1.0" encoding="UTF-8" standalone="no"?>
<svg xmlns="http://www.w3.org/2000/svg" viewBox="0 0 300 100">
  <path fill="#ff9900" d="M30,20h240c5.5,0,10,4.5,10,10v40c0,5.5-4.5,10-10,10H30c-5.5,0-10-4.5-10-10V30C20,24.5,24.5,20,30,20z"/>
  <text x="150" y="55" font-family="Arial, sans-serif" font-size="24" font-weight="bold" fill="#ffffff" text-anchor="middle">Star Cruises</text>
  <path fill="#ffffff" d="M60,40c5.5,0,10,4.5,10,10s-4.5,10-10,10s-10-4.5-10-10S54.5,40,60,40z"/>
  <path fill="#ffffff" d="M240,40c5.5,0,10,4.5,10,10s-4.5,10-10,10s-10-4.5-10-10S234.5,40,240,40z"/>
</svg>
